<svg xmlns="http://www.w3.org/2000/svg" viewBox="0 0 120 40" width="120" height="40">
  <!-- Excel grid icon -->
  <rect x="2" y="2" width="32" height="36" rx="4" fill="#1F4E79"/>
  <rect x="8" y="8" width="8" height="8" rx="1" fill="#4da6ff" opacity="0.8"/>
  <rect x="18" y="8" width="10" height="8" rx="1" fill="white" opacity="0.3"/>
  <rect x="8" y="18" width="8" height="6" rx="1" fill="white" opacity="0.3"/>
  <rect x="18" y="18" width="10" height="6" rx="1" fill="#4da6ff" opacity="0.6"/>
  <rect x="8" y="26" width="8" height="6" rx="1" fill="white" opacity="0.3"/>
  <rect x="18" y="26" width="10" height="6" rx="1" fill="white" opacity="0.3"/>
  <!-- Claude sparkle -->
  <circle cx="30" cy="8" r="6" fill="#FF8C42"/>
  <path d="M30 4 L31.5 7 L35 7 L32.5 9.5 L33.5 13 L30 11 L26.5 13 L27.5 9.5 L25 7 L28.5 7 Z" fill="white" transform="scale(0.6) translate(20, 3.5)"/>
  <!-- Text -->
  <text x="42" y="16" font-family="'PingFang TC','Microsoft JhengHei',sans-serif" font-size="11" font-weight="700" fill="#1F4E79">Claude for</text>
  <text x="42" y="30" font-family="'PingFang TC','Microsoft JhengHei',sans-serif" font-size="13" font-weight="800" fill="#1F4E79">Excel</text>
</svg>
